<svg xmlns="http://www.w3.org/2000/svg" width="32" height="25" viewBox="0 0 32 25"><path fill="#fff" d="M3.5 20a2.5 2.5 0 1 0 0 5 2.5 2.5 0 0 0 0-5zm0 4a1.5 1.5 0 1 1 0-3 1.5 1.5 0 0 1 0 3zM21.5 20a2.5 2.5 0 1 0 0 5 2.5 2.5 0 0 0 0-5zm0 4a1.5 1.5 0 1 1 0-3 1.5 1.5 0 0 1 0 3zM31.54 0H27.82l-.11.02-.07.02-.08.06a.3.3 0 0 0-.07.05l-.04.07a.2.2 0 0 0-.05.09l-.01.01-2.28 6.57H.46a.47.47 0 0 0-.38.21.52.52 0 0 0-.05.44l3.93 11.14c.06.19.24.32.43.32h17.12c.19 0 .37-.13.43-.32l3.93-11.14L28.16.96h3.38c.25 0 .46-.21.46-.48a.48.48 0 0 0-.46-.48zM21.36 18H4.64L1 8h24z"/></svg>