<svg width="26" height="21" viewBox="0 0 26 21" version="1.1" xmlns="http://www.w3.org/2000/svg" xmlns:xlink="http://www.w3.org/1999/xlink">
<g id="Canvas" transform="translate(-1259 762)">
<g id="Group 4">
<g id="Shape">
<use xlink:href="#path0_fill" transform="translate(1260 -746)"/>
</g>
<g id="Shape">
<use xlink:href="#path1_fill" transform="translate(1274 -746)"/>
</g>
<g id="Shape">
<use xlink:href="#path2_fill" transform="translate(1259 -762)"/>
</g>
</g>
</g>
<defs>
<path id="path0_fill" fill-rule="evenodd" d="M 0 2.05444C 0 0.921509 0.924072 0 2.0603 0C 3.19653 0 4.12061 0.921509 4.12061 2.05444C 4.12061 3.18738 3.19653 4.10889 2.0603 4.10889C 0.924072 4.10889 0 3.18738 0 2.05444ZM 0.742798 2.05408C 0.742798 2.7785 1.33374 3.36774 2.0603 3.36774C 2.78674 3.36774 3.37769 2.7785 3.37769 2.05408C 3.37769 1.32959 2.78674 0.740356 2.0603 0.740356C 1.33374 0.740356 0.742798 1.32959 0.742798 2.05408Z"/>
<path id="path1_fill" fill-rule="evenodd" d="M 0 2.05444C 0 0.921509 0.924072 0 2.0603 0C 3.19617 0 4.12061 0.921509 4.12061 2.05444C 4.12061 3.18738 3.19653 4.10889 2.0603 4.10889C 0.924072 4.10889 0 3.18738 0 2.05444ZM 0.742798 2.05408C 0.742798 2.7785 1.33374 3.36774 2.0603 3.36774C 2.78674 3.36774 3.37769 2.7785 3.37769 2.05408C 3.37769 1.32959 2.78674 0.740356 2.0603 0.740356C 1.33374 0.740356 0.742798 1.32959 0.742798 2.05408Z"/>
<path id="path2_fill" fill-rule="evenodd" d="M 22.2574 0L 25.2222 0C 25.4276 0 25.594 0.166321 25.594 0.370728C 25.594 0.575195 25.428 0.741089 25.2225 0.741089L 22.5189 0.741089L 20.693 5.81146C 20.6926 5.81183 20.6923 5.81219 20.6923 5.81299L 17.5507 14.4085C 17.4976 14.5548 17.3579 14.6522 17.2019 14.6522L 3.51294 14.6522C 3.3573 14.6522 3.21765 14.5548 3.16418 14.4085L 0.022583 5.81299C -0.019043 5.69928 -0.00268555 5.57257 0.0671387 5.47369C 0.136597 5.37445 0.250244 5.31555 0.371338 5.31555L 20.082 5.31555L 21.908 0.245178C 21.9084 0.24353 21.9095 0.242188 21.9105 0.240784C 21.9115 0.23938 21.9125 0.237976 21.9131 0.236267C 21.9215 0.214539 21.9346 0.195923 21.9479 0.177124L 21.9554 0.166321C 21.9595 0.160339 21.9633 0.154114 21.9669 0.147949C 21.9741 0.136047 21.9812 0.124207 21.9907 0.114441C 22.0021 0.1026 22.0159 0.09375 22.0297 0.0848389C 22.0353 0.0812378 22.041 0.0775757 22.0465 0.0737305C 22.0522 0.0697021 22.0577 0.0655518 22.0632 0.0613403C 22.077 0.0508423 22.0907 0.0404663 22.1067 0.0333252C 22.1179 0.0284424 22.1301 0.026001 22.1423 0.0236206C 22.1494 0.0221558 22.1565 0.020752 22.1635 0.0188599L 22.1765 0.0153198C 22.2 0.0088501 22.2234 0.00244141 22.2482 0.00183105C 22.2498 0.00183105 22.2513 0.00134277 22.2528 0.000915527C 22.2543 0.000488281 22.2559 0 22.2574 0ZM 3.77283 13.9114L 16.9415 13.9114L 19.8126 6.05664L 0.9021 6.05664L 3.77283 13.9114Z"/>
</defs>
</svg>
