<svg xmlns="http://www.w3.org/2000/svg" width="52" height="52" viewBox="0 0 52 52"><path fill="#ebba16" d="M0 26V0h26v26z"/><path fill="#ed8a19" d="M26 26V0h26v26zM0 52V26h26v26z"/><path fill="#556080" d="M26 52V26h26v26z"/><path fill="#fff" d="M44.07 41.86H32.93a.93.93 0 0 1-.93-.93c0-.51.42-.93.93-.93h11.14c.51 0 .93.42.93.93s-.42.93-.93.93zM44.07 36.86H32.93a.93.93 0 0 1-.93-.93c0-.51.42-.93.93-.93h11.14c.51 0 .93.42.93.93s-.42.93-.93.93zM12.93 39.5a.93.93 0 0 1-.66-1.58l4.65-4.65a.93.93 0 1 1 1.31 1.32l-4.64 4.64a.95.95 0 0 1-.66.27z"/><path fill="#fff" d="M7.93 44.5a.93.93 0 0 1-.66-1.58l4.65-4.65a.93.93 0 1 1 1.31 1.32l-4.64 4.64a.95.95 0 0 1-.66.27z"/><path fill="#fff" d="M17.57 44.5a.9.9 0 0 1-.65-.27l-4.65-4.64a.94.94 0 0 1 0-1.32.94.94 0 0 1 1.32 0l4.64 4.65a.93.93 0 0 1-.66 1.58z"/><path fill="#fff" d="M12.57 39.5a.9.9 0 0 1-.65-.27l-4.65-4.64a.94.94 0 0 1 0-1.32.94.94 0 0 1 1.32 0l4.64 4.65a.93.93 0 0 1-.66 1.58zM18.07 13.86H6.93a.93.93 0 0 1-.93-.93c0-.51.42-.93.93-.93h11.14c.51 0 .93.42.93.93s-.42.93-.93.93z"/><path fill="#fff" d="M12.93 19a.93.93 0 0 1-.93-.93V6.93c0-.51.42-.93.93-.93s.93.42.93.93v11.14c0 .51-.42.93-.93.93zM44.07 13.86H32.93a.93.93 0 0 1-.93-.93c0-.51.42-.93.93-.93h11.14c.51 0 .93.42.93.93s-.42.93-.93.93z"/></svg>