<svg xmlns="http://www.w3.org/2000/svg" width="53" height="62" viewBox="0 0 53 62"><path fill="#bf392b" d="M1.28 33.87l5.58-9.81a2.1 2.1 0 0 1 2.88-.78l41.15 24.13a2.13 2.13 0 0 1 .77 2.9l-5.57 9.82a2.12 2.12 0 0 1-2.89.77L2.05 36.77a2.13 2.13 0 0 1-.77-2.9z"/><path fill="#ac3327" d="M6.2 24.1l-.09-.1L5 25.98l31.59 28.34z"/><path fill="#d6d6d6" d="M45.35 60.36l5.57-9.82a2.13 2.13 0 0 0-.77-2.9L37.12 40 29 53.25l13.46 7.88c1.01.58 2.31.24 2.89-.77z"/><path fill="#cacaca" d="M31.24 49l-.24.34 5.43 4.88z"/><path fill="#e2574c" d="M6.61 21.5l7.89-7.88a2.1 2.1 0 0 1 2.98 0l33.55 33.41c.82.82.82 2.13 0 2.95l-7.88 7.88c-.82.82-2.16.82-2.98 0L6.61 24.45a2.1 2.1 0 0 1 0-2.95z"/><path fill="#cb4e44" d="M13.83 14L12 15.79 33.15 47.7z"/><path fill="#e0e0e0" d="M51.35 50.26c.82-.82.82-2.12 0-2.95L39.96 36 29 46.69l11.49 11.46c.82.82 2.16.82 2.98 0z"/><path fill="#d07c40" d="M15.05 10.94l9.76-5.66a2.1 2.1 0 0 1 2.88.78l23.95 41.77a2.15 2.15 0 0 1-.77 2.91l-9.76 5.65a2.12 2.12 0 0 1-2.89-.77L14.28 13.84a2.13 2.13 0 0 1 .77-2.9z"/><path fill="#d1d1d1" d="M31.19 44l-.19.19 2.4 3.63z"/><path fill="#ebebeb" d="M41.06 57.16l9.76-5.66a2.14 2.14 0 0 0 .77-2.9L43.22 34 30 42.22l8.12 14.17a2.19 2.19 0 0 0 2.94.77z"/><path fill="#bb6f39" d="M24.79 6.16c-.1-.39-.1-.77 0-1.16-.29.05-.53.15-.82.29L22 6.45 35.56 46.1zm15.53 46.95v.05h-.1z"/><path fill="#dbdbdb" d="M41.07 53.36h.09v-.05zM36.4 46.3L34 39.29l.43-.29z"/><path fill="#f4b459" d="M26.53 3.97l10.86-2.9a2.15 2.15 0 0 1 2.6 1.45l12.36 45.65a2.12 2.12 0 0 1-1.49 2.56l-10.87 2.9a2.15 2.15 0 0 1-2.6-1.45L25.09 6.53a2.04 2.04 0 0 1 1.44-2.56z"/><path fill="#efc75e" d="M40.5 0h9.95c1.4 0 2.5 1.11 2.5 2.51v47.2c0 1.4-1.1 2.51-2.5 2.51H40.5a2.49 2.49 0 0 1-2.5-2.51V2.51C38 1.11 39.11 0 40.5 0z"/><path fill="#e6e6e6" d="M33 36.82l4.04 14.94a2.06 2.06 0 0 0 2.59 1.45l10.87-2.9a2.1 2.1 0 0 0 1.49-2.56L47.95 33z"/><path fill="#dba250" d="M37.64 2.02c0-.39.1-.73.24-1.02-.09 0-.24 0-.33.05L35 1.73l2.64 38.53z"/><path fill="#efefef" d="M38 33v15.91c0 1.4 1.11 2.51 2.5 2.51h9.95c1.4 0 2.5-1.11 2.5-2.51V33z"/><path fill="#ddd" d="M37.5 36l-.5.1.5 4.06z"/><path fill="#bfbfbf" d="M40 36v2.42h8.17V36zm0 12.57h3.37v-1.45H40zm0-3.38h3.37v-1.45H40zm0-3.39h3.37v-1.45H40zm8.41 4.35c.68 0 1.21.54 1.21 1.21a1.2 1.2 0 0 1-1.21 1.21 1.2 1.2 0 0 1-1.2-1.21c0-.67.53-1.21 1.2-1.21z"/></svg>