<svg id="SvgjsSvg1051" xmlns="http://www.w3.org/2000/svg" version="1.1" xmlns:xlink="http://www.w3.org/1999/xlink" xmlns:svgjs="http://svgjs.com/svgjs" width="32" height="17" viewBox="0 0 32 17"><title>Shape</title><desc>Created with Avocode.</desc><defs id="SvgjsDefs1052"></defs><path id="SvgjsPath1053" d="M910 274C902.8 274 896.68 279.12 894.41 281.29C894.15 281.53000000000003 894 281.88 894 282.24C894 282.6 894.15 282.94 894.41 283.19C896.68 285.35 902.8 290.46999999999997 910 290.46999999999997C917.2 290.46999999999997 923.32 285.34999999999997 925.59 283.17999999999995C925.85 282.93999999999994 925.99 282.59 925.99 282.22999999999996C925.99 281.87999999999994 925.85 281.53 925.59 281.28999999999996C923.32 279.11999999999995 917.2 273.99999999999994 910 273.99999999999994ZM902.18 282.23C902.18 277.93 905.68 274.44 910 274.44C914.32 274.44 917.82 277.93 917.82 282.23C917.82 286.54 914.32 290.03000000000003 910 290.03000000000003C905.68 290.03000000000003 902.18 286.54 902.18 282.23Z " fill="#ffffff" fill-opacity="1" transform="matrix(1,0,0,1,-894,-274)"></path><path id="SvgjsPath1054" d="M906 282.12C906 284.39 907.85 286.24 910.14 286.24C912.42 286.24 914.27 284.39 914.27 282.12C914.27 279.84000000000003 912.42 278 910.14 278C907.85 278 906 279.84 906 282.12ZM911.71 280.83C911.25 280.83 910.88 280.46 910.88 280.01C910.88 279.55 911.25 279.18 911.71 279.18C912.1700000000001 279.18 912.5400000000001 279.55 912.5400000000001 280.01C912.5400000000001 280.23 912.45 280.44 912.3000000000001 280.59999999999997C912.1400000000001 280.74999999999994 911.9300000000001 280.84 911.71 280.84Z " fill="#ffffff" fill-opacity="1" transform="matrix(1,0,0,1,-894,-274)"></path></svg>