<svg id="SvgjsSvg1055" xmlns="http://www.w3.org/2000/svg" version="1.1" xmlns:xlink="http://www.w3.org/1999/xlink" xmlns:svgjs="http://svgjs.com/svgjs" width="157" height="36" viewBox="0 0 157 36"><title>Group 2 Copy 2</title><desc>Created with Avocode.</desc><defs id="SvgjsDefs1056"></defs><path id="SvgjsPath1057" d="M1745.74 867.84C1747.43 862.52 1749.03 858.98 1750.77 853.87C1751.37 852.1 1751.8899999999999 851.11 1751.72 850.11C1751.42 848.47 1750.33 848.04 1749.25 849.42C1749.08 849.68 1748.9 849.9 1748.77 850.16C1748.12 851.24 1747.56 852.36 1746.82 853.66C1744.57 857.55 1742.87 862.65 1741.7 864.38C1740.19 866.8 1738.06 866.33 1737.41 863.9C1735.68 865.16 1733.5900000000001 863.8199999999999 1733.68 861.61C1733.72 859.67 1734.24 857.16 1734.51 855.17C1734.85 852.7099999999999 1735.55 846.4399999999999 1735.5 843.0699999999999C1735.46 842.6299999999999 1735.42 842.3299999999999 1735.33 842.03C1734.9399999999998 840.86 1733.77 840.73 1732.77 841.42C1732.21 841.81 1731.73 842.63 1731.47 843.7099999999999C1731.04 845.2699999999999 1730.91 846.9599999999999 1730.69 848.6399999999999C1730.56 849.7699999999999 1728.69 859.7999999999998 1728.26 860.6199999999999C1726.92 863.3399999999999 1722.19 858.7599999999999 1718.68 857.7199999999999C1714.8200000000002 856.6399999999999 1712.39 858.6299999999999 1715.25 860.3599999999999C1717.16 861.5299999999999 1723.53 866.4999999999999 1725.1 868.1899999999999C1725.49 868.5699999999999 1725.57 868.6199999999999 1725.9599999999998 868.9599999999999C1726.5299999999997 869.53 1726.87 870.04 1727.4799999999998 870.56C1731.0399999999997 873.81 1737.2799999999997 875.3199999999999 1742.0099999999998 872.9C1742.9599999999998 872.38 1743.1799999999998 872.16 1743.8699999999997 871.47C1744.9999999999998 870.3000000000001 1745.2599999999998 869.3100000000001 1745.7399999999996 867.84 " fill="#ababab" fill-opacity="1" transform="matrix(1,0,0,1,-1713,-840)"></path><path id="SvgjsPath1058" d="M1805 874.44H1810.12L1812.2399999999998 864.6300000000001C1815.0599999999997 864.2800000000001 1815.1499999999999 866.2300000000001 1815.5799999999997 868.3500000000001L1816.7099999999998 874.4400000000002H1821.9099999999999L1820.6499999999999 868.2200000000001C1820.35 866.7000000000002 1819.6599999999999 865.4500000000002 1819.09 864.8400000000001C1818.75 864.5000000000001 1818.4399999999998 864.3300000000002 1818.05 864.0200000000001C1818.8799999999999 863.5000000000001 1819.53 863.2900000000001 1820.18 862.9000000000001C1821.22 862.2900000000001 1822.22 861.4300000000001 1823.21 859.7C1824.43 857.58 1825.03 854.34 1823.82 851.96C1822.61 849.49 1820.61 849.02 1817.05 849.02C1813.8 849.02 1810.59 848.98 1807.34 849.02L1806.56 853.04H1809.34ZM1814.67 853.08C1816.93 853 1820.65 852.4300000000001 1819.01 857.36C1817.84 860.87 1815.62 860.65 1813.11 860.61Z " fill="#ababab" fill-opacity="1" transform="matrix(1,0,0,1,-1713,-840)"></path><path id="SvgjsPath1059" d="M1853 874.42H1857.55L1859.1599999999999 867.29C1861.11 867.12 1861.2799999999997 868.15 1861.7199999999998 870.23L1862.5399999999997 874.4200000000001L1867.2699999999998 874.3800000000001L1866.6199999999997 871.1800000000001C1865.9199999999996 868.1500000000001 1866.1799999999996 867.59 1864.3999999999996 865.69L1869.7799999999997 857.9100000000001L1864.9299999999998 857.95C1863.7099999999998 859.59 1862.6299999999999 861.63 1861.5399999999997 863.3100000000001H1860.0199999999998C1859.9399999999998 861.8800000000001 1862.5399999999997 851.8100000000001 1862.9299999999998 849.0000000000001H1855.3899999999999L1854.6499999999999 853.0200000000001H1857.3799999999999C1856.9499999999998 856.44 1853.04 872.69 1852.9999999999998 874.4200000000001 " fill="#ababab" fill-opacity="1" transform="matrix(1,0,0,1,-1713,-840)"></path><path id="SvgjsPath1060" d="M1766.48 867.81H1762.23L1761.67 870.3599999999999H1758.24L1762.71 848.9999999999999L1754.52 849.0899999999999L1753.56 853.0199999999999H1756.55L1752 874.4199999999998L1765.1 874.3799999999999 " fill="#ababab" fill-opacity="1" transform="matrix(1,0,0,1,-1713,-840)"></path><path id="SvgjsPath1061" d="M1828.25 875.27C1832.46 875.6999999999999 1834.59 874.14 1835.89 872.4499999999999C1837.0600000000002 870.9399999999999 1837.45 869.78 1837.92 867.92C1838.6200000000001 865.41 1839.01 862.52 1837.4 860.3499999999999C1835.71 858.06 1832.2900000000002 857.3299999999999 1829.0300000000002 858.67C1826.4700000000003 859.75 1824.6100000000001 861.91 1823.6600000000003 864.8499999999999C1823.1800000000003 866.3599999999999 1822.8800000000003 868.1399999999999 1823.0500000000004 869.8199999999999C1823.2700000000004 872.2399999999999 1824.4400000000005 874.06 1826.7800000000004 874.92C1827.1700000000005 875.0999999999999 1827.6500000000003 875.18 1828.2500000000005 875.27ZM1828.47 865.76C1828.9 864.12 1830.1200000000001 861.39 1832.16 862.08C1833.76 862.5600000000001 1833.8500000000001 867.32 1832.16 869.7800000000001C1830.8500000000001 871.7300000000001 1828.8600000000001 872.0300000000001 1828.21 869.4800000000001C1827.91 868.4400000000002 1828.08 867.2700000000001 1828.47 865.7600000000001Z " fill="#ababab" fill-opacity="1" transform="matrix(1,0,0,1,-1713,-840)"></path><path id="SvgjsPath1062" d="M1780.11 873.8L1779.33 870.3399999999999C1777.1999999999998 871.0699999999999 1774.08 872.6299999999999 1773.26 869.43C1776.77 869.7299999999999 1779.85 868.6099999999999 1781.58 865.5799999999999C1785.9199999999998 857.9699999999999 1775.12 855.2499999999999 1770.48 861.3399999999999C1768.88 863.4599999999999 1768.05 865.7099999999999 1768.01 868.6499999999999C1768.01 868.6499999999999 1767.78 871.3799999999999 1769.61 873.5799999999998C1772.36 876.8699999999998 1777.7199999999998 874.6199999999998 1780.11 873.7999999999998ZM1776.12 862.08C1777.4199999999998 861.82 1777.9099999999999 862.74 1777.6399999999999 863.85C1777.52 864.34 1777.33 864.8000000000001 1776.8999999999999 865.24C1776.12 866.01 1774.86 866.23 1773.3899999999999 866.19C1773.6499999999999 864.4100000000001 1774.5099999999998 862.4300000000001 1776.12 862.08Z " fill="#ababab" fill-opacity="1" transform="matrix(1,0,0,1,-1713,-840)"></path><path id="SvgjsPath1063" d="M1793.25 865C1793.96 867.73 1797.94 868.11 1798.42 869.37C1799.3300000000002 871.66 1795.0800000000002 871.96 1792.65 870.01L1791 873.47C1792.26 875.07 1796.16 875.51 1798.63 874.99C1801.6200000000001 874.38 1803.3200000000002 871.96 1803.45 869.02C1803.53 867.68 1803.23 866.99 1802.06 865.91C1801.02 865 1799.8 864.74 1798.85 864.0899999999999C1798.33 863.7399999999999 1798.1599999999999 863.66 1798.1999999999998 863.0099999999999C1798.2899999999997 861.8399999999999 1799.2399999999998 861.8899999999999 1800.6699999999998 861.9299999999998L1800.37 863.6999999999998L1803.7099999999998 863.6599999999999L1805.87 856.9999999999999L1801.8 857.0399999999998L1801.58 858.0399999999998C1799.54 857.9099999999999 1797.1599999999999 857.8399999999998 1795.55 859.1199999999999C1795.55 859.1199999999999 1792.3899999999999 861.6599999999999 1793.25 864.9999999999999 " fill="#ababab" fill-opacity="1" transform="matrix(1,0,0,1,-1713,-840)"></path><path id="SvgjsPath1064" d="M1840.9 873.91C1841.3400000000001 874.29 1841.99 874.68 1842.94 874.9399999999999C1844.02 875.29 1845.28 875.3299999999999 1846.5 875.16C1847.28 875.0699999999999 1847.84 874.9 1848.36 874.77C1849.01 874.6 1849.53 874.38 1850.1799999999998 874.12C1850.4399999999998 873.99 1850.7499999999998 873.91 1851.0499999999997 873.73L1850.2699999999998 870.32C1848.7899999999997 870.7900000000001 1843.4999999999998 873.47 1844.0699999999997 867.38C1844.4099999999996 863.87 1845.4999999999998 861.54 1849.3999999999996 862.02L1849.0999999999997 863.6999999999999L1852.3899999999996 863.66L1854.5999999999997 857H1850.5699999999997L1850.2699999999998 858.17C1845.6299999999997 857.6899999999999 1843.1099999999997 858.99 1841.1599999999999 861.63C1839.56 863.74 1838.82 866.77 1839.04 869.84C1839.17 871.35 1839.69 872.87 1840.8999999999999 873.9100000000001 " fill="#ababab" fill-opacity="1" transform="matrix(1,0,0,1,-1713,-840)"></path><path id="SvgjsPath1065" d="M1783 874.4H1787.47L1790.1100000000001 861.8199999999999L1792.63 861.8599999999999L1793.88 857.9699999999999H1790.98L1791.98 852.9999999999999H1787.99L1786.51 857.9699999999999H1784.1299999999999L1783.35 861.8199999999999H1785.3899999999999Z " fill="#ababab" fill-opacity="1" transform="matrix(1,0,0,1,-1713,-840)"></path><path id="SvgjsPath1066" d="M1737.24 861.9C1738.11 860.04 1738.72 857.3199999999999 1738.93 855.63C1739.15 853.99 1738.67 853.3 1736.94 853.04C1736.46 852.9499999999999 1735.98 853 1735.55 853.3399999999999C1734.8999999999999 853.8199999999999 1734.99 854.68 1734.73 856.1099999999999C1734.29 859.05 1733.38 862.1999999999999 1734.64 863.2399999999999C1735.98 864.3199999999999 1736.76 862.9799999999999 1737.24 861.8999999999999 " fill="#ababab" fill-opacity="1" transform="matrix(1,0,0,1,-1713,-840)"></path><path id="SvgjsPath1067" d="M1741.06 863.67C1742.45 861.38 1744.19 857.36 1743.32 856.02C1742.58 854.9399999999999 1740.54 854.38 1739.9399999999998 856.1C1739.4599999999998 857.44 1739.0299999999997 859.52 1738.6799999999998 860.69C1738.2899999999997 861.94 1737.6799999999998 863.6300000000001 1738.1999999999998 864.49C1739.11 866.05 1740.4599999999998 864.62 1741.0599999999997 863.67 " fill="#ababab" fill-opacity="1" transform="matrix(1,0,0,1,-1713,-840)"></path><path id="SvgjsPath1068" d="M1794 851.66H1797.25L1799.59 845H1795.3899999999999Z " fill="#ababab" fill-opacity="1" transform="matrix(1,0,0,1,-1713,-840)"></path></svg>