<svg width="20" height="19" viewBox="0 0 20 19" version="1.1" xmlns="http://www.w3.org/2000/svg" xmlns:xlink="http://www.w3.org/1999/xlink">
<g id="Canvas" transform="translate(-1016 -224)">
<g id="noun_733442_cc">
<g id="Group">
<g id="Group">
<g id="Shape">
<use xlink:href="#path0_fill" transform="translate(1016 224)" fill="#8B8B8B"/>
</g>
</g>
</g>
</g>
</g>
<defs>
<path id="path0_fill" fill-rule="evenodd" d="M 1.95945 4.30813e-14C 1.45753 4.30813e-14 0.95737 0.182956 0.57441 0.545684C -0.19147 1.27122 -0.19147 2.44425 0.57441 3.16974L 7.22993 9.47448L 0.57441 15.7792C -0.19147 16.5047 -0.19147 17.6777 0.57441 18.4032C 1.34033 19.1287 2.57857 19.1287 3.34445 18.4032L 10 12.0985L 16.6555 18.4032C 17.4214 19.1287 18.6597 19.1287 19.4256 18.4032C 20.1915 17.6777 20.1915 16.5047 19.4256 15.7792L 12.7701 9.47448L 19.4256 3.16974C 20.1915 2.44425 20.1915 1.27122 19.4256 0.545684C 18.6597 -0.179811 17.4214 -0.179811 16.6555 0.545684L 10 6.85042L 3.34445 0.545684C 2.96153 0.182956 2.46133 0 1.95945 0L 1.95945 4.30813e-14Z"/>
</defs>
</svg>
