<svg id="SvgjsSvg1114" xmlns="http://www.w3.org/2000/svg" version="1.1" xmlns:xlink="http://www.w3.org/1999/xlink" xmlns:svgjs="http://svgjs.com/svgjs" width="89.49999520497698" height="86.6242831124805" viewBox="0 0 89.49999520497698 86.6242831124805"><title>icon</title><desc>Created with Avocode.</desc><defs id="SvgjsDefs1115"></defs><path id="SvgjsPath1116" d="M197.77 1437.53C197.77 1440.3 200 1442.54 202.77 1442.54H227.57000000000002C229.38000000000002 1442.54 230.85000000000002 1444 230.85000000000002 1445.82C230.85000000000002 1447.6299999999999 229.38000000000002 1449.1 227.57000000000002 1449.1C227.57000000000002 1449.1 176.73000000000002 1449.1 181.29000000000002 1449.1C185.85000000000002 1449.1 227.57000000000002 1449.1 227.57000000000002 1449.1C229.38000000000002 1449.1 230.85000000000002 1447.6299999999999 230.85000000000002 1445.82C230.85000000000002 1444 229.38000000000002 1442.54 227.57000000000002 1442.54H202.76000000000002C200.00000000000003 1442.54 197.77 1440.3 197.77 1437.53C197.77 1436.26 198.26000000000002 1434.98 199.23000000000002 1434C198.26000000000002 1434.98 197.77 1436.26 197.77 1437.53Z " fill-opacity="0" fill="#ffffff" stroke-dashoffset="0" stroke-linejoin="miter" stroke-linecap="butt" stroke-opacity="1" stroke="#000000" stroke-miterlimit="50" stroke-width="1" transform="matrix(1,0,0,1,-172,-1380.3757168875195)"></path><path id="SvgjsPath1117" d="M173 1424.5C173 1401.58018 191.58017999999998 1383 214.5 1383C237.41982000000002 1383 256 1401.58018 256 1424.5C256 1447.41982 237.41982000000002 1466 214.5 1466C191.58017999999998 1466 173 1447.41982 173 1424.5Z " fill-opacity="0" fill="#ffffff" stroke-dashoffset="0" stroke-linejoin="miter" stroke-linecap="butt" stroke-opacity="1" stroke="#f5a623" stroke-miterlimit="50" stroke-width="2" transform="matrix(1,0,0,1,-172,-1380.3757168875195)"></path><path id="SvgjsPath1118" d="M226 1393V1388H261V1393Z " fill-opacity="0" fill="#ffffff" stroke-dashoffset="0" stroke-linejoin="miter" stroke-linecap="butt" stroke-opacity="1" stroke="#000000" stroke-miterlimit="50" stroke-width="0.9999904099540153" transform="matrix(1,0,0,1,-172,-1380.3757168875195)"></path><path id="SvgjsPath1119" d="M231.34 1381L252.55 1402.21L221.10000000000002 1427.3700000000001C218.95000000000002 1429.0900000000001 215.60000000000002 1428.9 213.66000000000003 1426.96L206.59000000000003 1419.89C204.64000000000004 1417.95 204.46000000000004 1414.6000000000001 206.18000000000004 1412.45Z " fill="#ffffff" fill-opacity="1" transform="matrix(1,0,0,1,-172,-1380.3757168875195)"></path><path id="SvgjsPath1120" d="M231.34 1381L252.55 1402.21L221.10000000000002 1427.3700000000001C218.95000000000002 1429.0900000000001 215.60000000000002 1428.9 213.66000000000003 1426.96L206.59000000000003 1419.89C204.64000000000004 1417.95 204.46000000000004 1414.6000000000001 206.18000000000004 1412.45Z " fill-opacity="0" fill="#ffffff" stroke-dashoffset="0" stroke-linejoin="miter" stroke-linecap="butt" stroke-opacity="1" stroke="#000000" stroke-miterlimit="50" stroke-width="1" transform="matrix(1,0,0,1,-172,-1380.3757168875195)"></path><path id="SvgjsPath1121" d="M213.37 1427.07C212.4 1426.1 210.82 1426.09 209.84 1427.07L204.54 1432.3799999999999L201 1428.84L206.3 1423.54C207.28 1422.56 207.28 1420.98 206.3 1420Z " fill-opacity="0" fill="#ffffff" stroke-dashoffset="0" stroke-linejoin="miter" stroke-linecap="butt" stroke-opacity="1" stroke="#000000" stroke-miterlimit="50" stroke-width="1" transform="matrix(1,0,0,1,-172,-1380.3757168875195)"></path><path id="SvgjsPath1122" d="M207.54 1429.54L204 1426Z " fill-opacity="0" fill="#ffffff" stroke-dashoffset="0" stroke-linejoin="miter" stroke-linecap="butt" stroke-opacity="1" stroke="#000000" stroke-miterlimit="50" stroke-width="1" transform="matrix(1,0,0,1,-172,-1380.3757168875195)"></path><path id="SvgjsPath1123" d="M246.82 1407.85L221.12 1395L209 1410.15L230.5 1420.9Z " fill-opacity="0" fill="#ffffff" stroke-dashoffset="0" stroke-linejoin="miter" stroke-linecap="butt" stroke-opacity="1" stroke="#000000" stroke-miterlimit="50" stroke-width="1" transform="matrix(1,0,0,1,-172,-1380.3757168875195)"></path><path id="SvgjsPath1124" d="M220.92 1427.92L206 1413Z " fill-opacity="0" fill="#ffffff" stroke-dashoffset="0" stroke-linejoin="miter" stroke-linecap="butt" stroke-opacity="1" stroke="#000000" stroke-miterlimit="50" stroke-width="1" transform="matrix(1,0,0,1,-172,-1380.3757168875195)"></path><path id="SvgjsPath1125" d="M188.5 1392.5L240.5 1456.5 " fill-opacity="0" fill="#ffffff" stroke-dashoffset="0" stroke-linejoin="miter" stroke-linecap="square" stroke-opacity="1" stroke="#f5a623" stroke-miterlimit="50" stroke-width="2" transform="matrix(1,0,0,1,-172,-1380.3757168875195)"></path></svg>