<svg id="SvgjsSvg1009" xmlns="http://www.w3.org/2000/svg" version="1.1" xmlns:xlink="http://www.w3.org/1999/xlink" xmlns:svgjs="http://svgjs.com/svgjs" width="16" height="16" viewBox="0 0 16 16"><title>Shape</title><desc>Created with Avocode.</desc><defs id="SvgjsDefs1010"></defs><path id="SvgjsPath1011" d="M1692.42 27.49L1688.72 25.36C1688.27 25.099999999999998 1687.69 25.18 1687.32 25.55L1686.59 26.28C1686.3999999999999 26.470000000000002 1686.09 26.490000000000002 1685.8799999999999 26.32C1685.3 25.85 1684.7399999999998 25.35 1684.1999999999998 24.8C1683.6499999999999 24.26 1683.1499999999999 23.7 1682.6799999999998 23.12C1682.5099999999998 22.91 1682.5299999999997 22.6 1682.7199999999998 22.41L1683.4499999999998 21.68C1683.8199999999997 21.31 1683.8999999999999 20.73 1683.6399999999999 20.28L1681.5099999999998 16.580000000000002C1681.3299999999997 16.270000000000003 1681.0099999999998 16.060000000000002 1680.6499999999999 16.01C1680.29 15.96 1679.9399999999998 16.080000000000002 1679.6799999999998 16.34L1678.58 17.44C1677.82 18.200000000000003 1677.81 19.61 1678.55 21.39C1679.26 23.1 1680.6 24.98 1682.31 26.69C1684.02 28.400000000000002 1685.8999999999999 29.740000000000002 1687.61 30.450000000000003C1688.49 30.820000000000004 1689.27 31.000000000000004 1689.9399999999998 31.000000000000004C1690.62 31.000000000000004 1691.1699999999998 30.810000000000002 1691.5599999999997 30.420000000000005L1692.6599999999996 29.320000000000004C1692.9199999999996 29.060000000000002 1693.0399999999997 28.710000000000004 1692.9899999999996 28.350000000000005C1692.9399999999996 27.990000000000006 1692.7299999999996 27.670000000000005 1692.4199999999996 27.490000000000006ZM1692.18 27.91C1692.3600000000001 28.02 1692.48 28.2 1692.51 28.41C1692.53 28.59 1692.49 28.76 1692.3799999999999 28.9L1687.4599999999998 26.09L1687.6599999999999 25.89C1687.8799999999999 25.68 1688.2099999999998 25.63 1688.4799999999998 25.78ZM1681.09 16.82L1683.22 20.52C1683.3700000000001 20.79 1683.32 21.12 1683.1100000000001 21.34L1682.93 21.52L1680.1000000000001 16.619999999999997C1680.22 16.529999999999998 1680.3600000000001 16.49 1680.5000000000002 16.49C1680.5300000000002 16.49 1680.5600000000002 16.49 1680.5900000000001 16.49C1680.8000000000002 16.52 1680.9800000000002 16.639999999999997 1681.0900000000001 16.819999999999997ZM1687.8 30C1686.1499999999999 29.31 1684.32 28.01 1682.6499999999999 26.35C1680.9899999999998 24.68 1679.6899999999998 22.85 1678.9999999999998 21.200000000000003C1678.3399999999997 19.640000000000004 1678.3199999999997 18.390000000000004 1678.9299999999998 17.78L1679.7399999999998 16.970000000000002L1682.5699999999997 21.880000000000003L1682.3799999999997 22.070000000000004C1682.0099999999998 22.430000000000003 1681.9799999999996 23.020000000000003 1682.3099999999997 23.430000000000003C1682.7799999999997 24.020000000000003 1683.2999999999997 24.590000000000003 1683.8499999999997 25.150000000000002C1684.4099999999996 25.700000000000003 1684.9799999999998 26.220000000000002 1685.5699999999997 26.69C1685.9799999999998 27.02 1686.5699999999997 26.990000000000002 1686.9299999999996 26.62L1687.1099999999997 26.45L1692.0299999999997 29.259999999999998L1691.2199999999998 30.069999999999997C1690.61 30.679999999999996 1689.36 30.659999999999997 1687.7999999999997 29.999999999999996Z " fill="#000000" fill-opacity="1" transform="matrix(1,0,0,1,-1678,-15)"></path></svg>