<svg id="SvgjsSvg1014" xmlns="http://www.w3.org/2000/svg" version="1.1" xmlns:xlink="http://www.w3.org/1999/xlink" xmlns:svgjs="http://svgjs.com/svgjs" width="11" height="19" viewBox="0 0 11 19"><title>Shape</title><desc>Created with Avocode.</desc><defs id="SvgjsDefs1015"></defs><path id="SvgjsPath1016" d="M1.37 1.39C0.4900000000000001 2.28 -0.009999999999999787 3.49 0 4.75V9.75C0 12.36 2.11 14.469999999999999 4.72 14.469999999999999C7.33 14.469999999999999 9.44 12.36 9.44 9.75V4.75C9.45 3.49 8.95 2.28 8.07 1.3900000000000001C7.180000000000001 0.5000000000000001 5.98 2.220446049250313e-16 4.720000000000001 2.220446049250313e-16C3.460000000000001 2.220446049250313e-16 2.2600000000000007 0.5000000000000002 1.3700000000000006 1.3900000000000001ZM8.44 9.75C8.44 11.8 6.77 13.47 4.719999999999999 13.47C2.669999999999999 13.47 0.9999999999999987 11.8 0.9999999999999987 9.75V4.75C0.9999999999999987 2.7 2.6699999999999986 1.0299999999999998 4.719999999999999 1.0299999999999998C6.769999999999999 1.0299999999999998 8.44 2.6999999999999997 8.44 4.75Z " fill="#ffffff" fill-opacity="1" transform="matrix(1,0,0,1,1,0)"></path><path id="SvgjsPath1017" d="M5 6V3H6V6Z " fill="#ffffff" fill-opacity="1" transform="matrix(1,0,0,1,1,0)"></path><path id="SvgjsPath1018" d="M5.43 18.07L4.359999999999999 17L3.9999999999999996 17.35L5.43 18.78L6.859999999999999 17.35L6.499999999999999 17Z " fill="#ffffff" fill-opacity="1" transform="matrix(1,0,0,1,1,0)"></path></svg>