<svg id="SvgjsSvg1069" xmlns="http://www.w3.org/2000/svg" version="1.1" xmlns:xlink="http://www.w3.org/1999/xlink" xmlns:svgjs="http://svgjs.com/svgjs" width="26" height="26" viewBox="0 0 26 26"><title>Shape</title><desc>Created with Avocode.</desc><defs id="SvgjsDefs1070"></defs><path id="SvgjsPath1071" d="M730 856.83C730 862.26 734.37 866.6600000000001 739.76 866.6600000000001C741.67 866.6600000000001 743.45 866.1100000000001 744.96 865.1500000000001L751.6 871.8500000000001C752.44 872.7100000000002 753.83 872.7100000000002 754.6700000000001 871.8500000000001C755.5200000000001 871.0000000000001 755.5200000000001 869.6100000000001 754.6700000000001 868.7600000000001L748.0200000000001 862.07C748.9700000000001 860.5500000000001 749.5200000000001 858.7600000000001 749.5200000000001 856.83C749.5200000000001 851.4100000000001 745.1500000000001 847 739.7600000000001 847C734.3700000000001 847 730.0000000000001 851.41 730.0000000000001 856.83ZM748.8 856.83C748.8 861.86 744.76 865.94 739.76 865.94C734.76 865.94 730.72 861.86 730.72 856.83C730.72 851.8000000000001 734.76 847.73 739.76 847.73C744.76 847.73 748.8 851.8000000000001 748.8 856.83ZM754.16 869.28C754.73 869.86 754.73 870.77 754.16 871.3399999999999C753.5899999999999 871.92 752.6899999999999 871.92 752.12 871.3399999999999L745.55 864.7299999999999C746.3399999999999 864.1499999999999 747.02 863.4599999999999 747.5999999999999 862.67Z " fill="#414141" fill-opacity="1" transform="matrix(1,0,0,1,-730,-847)"></path></svg>